<?xml version="1.0" encoding="iso-8859-1"?>
<!-- Uploaded to: SVG Repo, www.svgrepo.com, Generator: SVG Repo Mixer Tools -->
<svg height="50px" width="50px" version="1.1" id="Layer_1" xmlns="http://www.w3.org/2000/svg" xmlns:xlink="http://www.w3.org/1999/xlink" 
	 viewBox="0 0 392.598 392.598" xml:space="preserve">
<path style="fill:#FFC10D;" d="M150.723,158.772c0-7.822-4.396-14.933-11.119-17.907c-16.873-7.564-34.78-11.442-53.333-11.442
	s-36.461,3.879-53.333,11.442c-6.788,3.103-11.119,10.149-11.119,17.907v38.853h128.905V158.772z"/>
<path style="fill:#FFFFFF;" d="M86.271,71.952c13.834,0,25.083-11.313,25.083-25.083s-11.248-25.147-25.083-25.147
	S61.253,33.099,61.253,46.933S72.436,71.952,86.271,71.952z"/>
<path style="fill:#56ACE0;" d="M370.78,331.895c0-7.822-4.396-14.933-11.119-17.907c-16.873-7.564-34.78-11.442-53.333-11.442
	c-18.554,0-36.461,3.879-53.333,11.442c-6.788,3.038-11.119,10.149-11.119,17.907v38.853H370.78V331.895z"/>
<path style="fill:#FFFFFF;" d="M306.327,245.01c13.834,0,25.083-11.313,25.083-25.083c0-13.77-11.313-25.083-25.083-25.083
	c-13.77,0-25.083,11.313-25.083,25.083C281.244,233.697,292.493,245.01,306.327,245.01z"/>
<g>
	<path style="fill:#194F82;" d="M148.525,121.018c-19.717-8.857-40.663-13.382-62.255-13.382s-42.602,4.461-62.255,13.382
		c-14.61,6.529-23.984,21.398-23.984,37.754v49.778c0,6.012,4.848,10.925,10.925,10.925h150.691c6.012,0,10.925-4.848,10.925-10.925
		v-49.778C172.574,142.416,163.135,127.547,148.525,121.018z M21.818,158.772c0-7.822,4.396-14.933,11.119-17.907
		c16.873-7.564,34.78-11.442,53.333-11.442s36.461,3.879,53.333,11.442c6.788,3.103,11.119,10.149,11.119,17.907v38.788H21.818
		V158.772z"/>
	<path style="fill:#194F82;" d="M86.271,93.737c25.859,0,46.933-21.01,46.933-46.933S112.194,0,86.271,0S39.467,21.01,39.467,46.933
		S60.477,93.737,86.271,93.737z M86.271,21.786c13.834,0,25.083,11.313,25.083,25.083S100.04,71.952,86.271,71.952
		S61.253,60.638,61.253,46.869S72.436,21.786,86.271,21.786z"/>
	<path style="fill:#194F82;" d="M368.517,294.077c-19.717-8.857-40.663-13.382-62.255-13.382s-42.602,4.461-62.255,13.382
		c-14.61,6.594-23.984,21.398-23.984,37.818v49.778c0,6.012,4.848,10.925,10.925,10.925H381.64c6.012,0,10.925-4.848,10.925-10.925
		v-49.778C392.566,315.475,383.127,300.671,368.517,294.077z M241.875,331.895c0-7.887,4.396-14.933,11.119-17.907
		c16.873-7.564,34.78-11.442,53.333-11.442c18.554,0,36.461,3.879,53.333,11.442c6.788,3.103,11.119,10.149,11.119,17.907v38.788
		H241.875V331.895z"/>
	<path style="fill:#194F82;" d="M306.327,266.925c25.859,0,46.933-21.01,46.933-46.933s-21.075-46.933-46.933-46.933
		s-46.933,21.01-46.933,46.933S280.469,266.925,306.327,266.925z M306.327,194.844c13.834,0,25.083,11.313,25.083,25.083
		c0,13.77-11.313,25.083-25.083,25.083c-13.77,0-25.083-11.313-25.083-25.083C281.244,206.158,292.493,194.844,306.327,194.844z"/>
	<path style="fill:#194F82;" d="M295.661,118.562l0.453,2.78l-12.154-8.598c-4.913-3.491-11.766-2.327-15.192,2.651
		c-3.426,4.978-2.327,11.766,2.651,15.192l33.616,23.79c5.689,3.556,11.636,2.069,15.192-2.65l23.79-33.616
		c3.491-4.913,2.327-11.766-2.65-15.192c-4.978-3.491-11.766-2.327-15.192,2.651l-8.598,12.024l-0.453-2.78
		c-8.21-47.58-53.527-79.774-101.236-71.564c-5.947,1.034-9.891,6.659-8.857,12.606c1.034,5.947,6.659,9.956,12.606,8.857
		C255.386,58.634,289.519,82.747,295.661,118.562z"/>
	<path style="fill:#194F82;" d="M172.962,327.693c-35.749,6.077-69.883-17.907-75.96-53.721l-0.453-2.78l12.154,8.598
		c4.913,3.491,11.766,2.327,15.192-2.65c3.491-4.913,2.327-11.766-2.651-15.192l-33.616-23.79
		c-5.689-3.556-11.636-2.069-15.192,2.65l-23.79,33.616c-3.491,4.913-2.327,11.766,2.651,15.192
		c4.978,3.426,11.766,2.327,15.192-2.65l8.469-12.024l0.453,2.78c8.21,47.58,53.527,79.774,101.172,71.499
		c5.947-1.034,9.891-6.659,8.857-12.606C184.533,330.731,178.909,326.723,172.962,327.693z"/>
</g>
</svg>